<?xml version="1.0" encoding="UTF-8"?>
<svg id="Ebene_2" data-name="Ebene 2" xmlns="http://www.w3.org/2000/svg" viewBox="0 0 91.49 91.49">
  <g id="Ebene_1-2">
    <g>
      <path d="M62.88,12.42c-1.46-.75-3.25-.18-4,1.28-.75,1.46-.18,3.25,1.28,4,10.56,5.44,17.11,16.19,17.11,28.05,0,1.64,1.33,2.97,2.97,2.97s2.97-1.33,2.97-2.97c0-14.1-7.79-26.87-20.33-33.33Z"/>
      <path d="M54.66,9.34c-2.9-.71-5.9-1.07-8.91-1.07-1.64,0-2.97,1.33-2.97,2.97s1.33,2.97,2.97,2.97c2.54,0,5.06.3,7.51.9.24.06.47.08.71.08,1.34,0,2.55-.91,2.88-2.26.39-1.59-.59-3.2-2.18-3.59Z"/>
      <path d="M45.75,0C20.52,0,0,20.52,0,45.75s20.52,45.75,45.75,45.75,45.75-20.52,45.75-45.75S70.97,0,45.75,0ZM55.37,84.37l11.44-11.44c1.16-1.16,1.16-3.04,0-4.2-1.16-1.16-3.04-1.16-4.2,0l-16.82,16.82s-.03,0-.04,0c-2.04,0-4.04-.15-5.99-.45l13.64-13.64c1.16-1.16,1.16-3.04,0-4.2-1.16-1.16-3.04-1.16-4.2,0l-16.19,16.18c-1.58-.53-3.12-1.16-4.6-1.88l14.96-14.96c1.16-1.16,1.16-3.04,0-4.2-1.16-1.16-3.04-1.16-4.2,0l-16.05,16.05c-1.27-.88-2.48-1.83-3.64-2.85l15.56-15.56c1.16-1.16,1.16-3.04,0-4.2-1.16-1.16-3.04-1.16-4.2,0l-15.52,15.52c-.99-1.18-1.92-2.42-2.78-3.7l16.05-16.05c1.16-1.16,1.16-3.04,0-4.2-1.16-1.16-3.04-1.16-4.2,0l-14.85,14.85c-.69-1.51-1.31-3.07-1.81-4.68l16.47-16.46c1.16-1.16,1.16-3.04,0-4.2-1.16-1.16-3.04-1.16-4.2,0l-13.75,13.75c-.2-1.62-.32-3.27-.32-4.95,0-.42.02-.83.03-1.25l17-17c1.16-1.16,1.16-3.04,0-4.2-1.16-1.16-3.04-1.16-4.2,0l-11.21,11.21C12.43,18.01,27.7,5.94,45.75,5.94c21.95,0,39.81,17.86,39.81,39.81,0,18.63-12.87,34.31-30.19,38.63Z"/>
    </g>
  </g>
  <style>@media (prefers-color-scheme: dark) { svg { fill: white; } }</style>
</svg>